<svg width="100" height="120" viewBox="0 0 100 120" fill="none" xmlns="http://www.w3.org/2000/svg">
  <defs>
    <linearGradient id="pinGradient" x1="0%" y1="0%" x2="100%" y2="100%">
      <stop offset="0%" stop-color="#8B5CF6" />
      <stop offset="100%" stop-color="#3B82F6" />
    </linearGradient>
    <linearGradient id="brainGradient" x1="0%" y1="0%" x2="100%" y2="0%">
      <stop offset="0%" stop-color="#60A5FA" />
      <stop offset="100%" stop-color="#A78BFA" />
    </linearGradient>
  </defs>
  <path d="M50 5C28 5 10 23 10 45C10 72 50 115 50 115S90 72 90 45C90 23 72 5 50 5Z" fill="url(#pinGradient)" />
  <circle cx="50" cy="42" r="28" fill="#0f0f1a" opacity="0.9"/>
  <path d="M35 35C35 35 40 30 50 30C60 30 65 35 65 35M35 45C35 45 40 50 50 50C60 50 65 45 65 45M38 38L42 42M58 38L62 42M45 32V38M55 32V38M40 48L44 52M56 48L60 52" stroke="url(#brainGradient)" stroke-width="2" stroke-linecap="round"/>
  <circle cx="50" cy="80" r="3" fill="white" opacity="0.9"/>
  <circle cx="42" cy="85" r="1.5" fill="white" opacity="0.6"/>
  <circle cx="58" cy="85" r="1.5" fill="white" opacity="0.6"/>
</svg>
